# Blender v3.3.1 OBJ File: 'cube.blend'
# www.blender.org
mtllib cube.mtl
o Cube
v 8.000000 16.000000 -8.000000
v 7.473108 15.473108 -7.473108
v 8.000000 0.000000 -8.000000
v 7.473108 0.526892 -7.473108
v 7.473108 15.473108 7.473108
v 7.473108 0.526892 7.473108
v -8.000000 16.000000 -8.000000
v -7.473108 15.473108 -7.473108
v -8.000000 0.000000 -8.000000
v -7.473108 0.526892 -7.473108
v -7.473108 15.473108 7.473108
v -7.473108 0.526892 7.473108
v -2.835002 16.000000 2.835002
v 2.835002 16.000000 -2.835002
v -2.835002 16.000000 -2.835002
v 2.835002 16.000000 2.835002
v -2.835002 15.473108 2.835002
v 2.835002 15.473108 -2.835002
v 2.835002 15.473108 2.835002
v -2.835002 15.473108 -2.835002
v 8.000000 16.000000 8.000000
v 8.000000 0.000000 8.000000
v -8.000000 16.000000 8.000000
v -8.000000 0.000000 8.000000
v -8.000000 3.000000 0.999999
v -8.000000 1.000000 0.999999
v -8.000000 1.000000 -1.000001
v -8.000000 3.000000 -1.000001
v 8.000000 1.000000 0.999999
v 8.000000 3.000000 0.999999
v 8.000000 3.000000 -1.000001
v 8.000000 1.000000 -1.000001
v -1.000000 1.000000 -8.000000
v -1.000000 3.000000 -8.000000
v 1.000000 3.000000 -8.000000
v 1.000000 1.000000 -8.000000
v -1.000001 1.000000 7.473108
v -1.000001 3.000000 7.473108
v 0.999999 3.000000 7.473108
v 0.999999 1.000000 7.473108
v -7.473108 1.000000 0.999999
v -7.473108 3.000000 0.999999
v -7.473108 3.000000 -1.000000
v -7.473108 1.000000 -1.000000
v 7.473108 1.000000 0.999999
v 7.473108 3.000000 0.999999
v 7.473108 3.000000 -1.000000
v 7.473108 1.000000 -1.000000
v -1.000000 1.000000 -7.473108
v -1.000000 3.000000 -7.473108
v 1.000000 3.000000 -7.473108
v 1.000000 1.000000 -7.473108
v -1.000001 1.000000 8.000000
v -1.000001 3.000000 8.000000
v 0.999999 3.000000 8.000000
v 0.999999 1.000000 8.000000
v -7.473108 3.000000 0.946570
v -8.000000 3.000000 0.924253
v -2.070261 0.526892 7.473108
v -2.220979 0.910761 7.473108
v 3.636158 0.807328 7.473108
v 3.711317 0.526892 7.473108
vt 0.794297 0.580703
vt 0.875000 0.500000
vt 0.875000 0.750000
vt 0.794297 0.669297
vt 0.705703 0.669297
vt 0.625000 0.750000
vt 0.625000 0.500000
vt 0.705703 0.580703
vt 0.375000 0.000000
vt 0.625000 0.000000
vt 0.421875 0.110559
vt 0.421875 0.109375
vt 0.390625 0.109375
vt 0.390625 0.140625
vt 0.375000 0.250000
vt 0.125000 0.500000
vt 0.375000 0.500000
vt 0.375000 0.750000
vt 0.125000 0.750000
vt 0.421875 0.609375
vt 0.390625 0.609375
vt 0.390625 0.640625
vt 0.625000 0.250000
vt 0.421875 0.359375
vt 0.390625 0.359375
vt 0.390625 0.390625
vt 0.797420 0.672420
vt 0.702580 0.672420
vt 0.625000 0.750000
vt 0.875000 0.750000
vt 0.875000 0.500000
vt 0.797420 0.577580
vt 0.702580 0.577580
vt 0.625000 0.500000
vt 0.249627 0.750000
vt 0.226120 0.750000
vt 0.125000 0.750000
vt 0.319877 0.750000
vt 0.282027 0.750000
vt 0.319890 0.750000
vt 0.312078 0.750000
vt 0.215371 0.750000
vt 0.382914 0.108273
vt 0.375000 0.000000
vt 0.375000 0.250000
vt 0.382914 0.141727
vt 0.625000 0.250000
vt 0.416367 0.141727
vt 0.125000 0.500000
vt 0.375000 0.750000
vt 0.375000 0.500000
vt 0.382914 0.641727
vt 0.416367 0.641727
vt 0.382913 0.608273
vt 0.382913 0.358273
vt 0.382913 0.391727
vt 0.416367 0.391727
vt 0.507555 1.000000
vt 0.507555 0.750000
vt 0.484324 0.750000
vt 0.484324 1.000000
vt 0.484324 0.250000
vt 0.507555 0.250000
vt 0.507555 0.000000
vt 0.484324 0.000000
vt 0.507555 0.500000
vt 0.484324 0.500000
vt 0.266693 0.750000
vt 0.295807 0.750000
vt 0.355108 0.750000
vt 0.500000 0.500000
vt 0.500000 0.250000
vt 0.434139 0.250000
vt 0.434139 0.500000
vt 0.565861 0.500000
vt 0.500000 0.500000
vt 0.500000 0.750000
vt 0.565861 0.750000
vt 0.375000 1.000000
vt 0.375000 1.000000
vt 0.625000 0.750000
vt 0.625000 0.750000
vt 0.375000 0.500000
vt 0.375000 0.500000
vt 0.125000 0.750000
vt 0.125000 0.750000
vt 0.500000 0.250000
vt 0.434139 0.250000
vt 0.434139 0.493321
vt 0.500000 0.490532
vt 0.500000 0.500000
vt 0.500000 0.750000
vt 0.565861 0.750000
vt 0.565861 0.500000
vt 0.375000 1.000000
vt 0.375000 1.000000
vt 0.625000 0.750000
vt 0.625000 0.750000
vt 0.375000 0.500000
vt 0.125000 0.750000
vt 0.125000 0.750000
vt 0.375000 0.500000
vt 0.434139 0.500000
vt 0.500000 0.500000
vt 0.500000 0.250000
vt 0.434139 0.250000
vt 0.500000 0.500000
vt 0.500000 0.750000
vt 0.565861 0.750000
vt 0.565861 0.500000
vt 0.375000 1.000000
vt 0.375000 1.000000
vt 0.625000 0.750000
vt 0.625000 0.750000
vt 0.375000 0.500000
vt 0.375000 0.500000
vt 0.125000 0.750000
vt 0.125000 0.750000
vt 0.434139 0.250000
vt 0.434139 0.500000
vt 0.500000 0.500000
vt 0.500000 0.250000
vt 0.500000 0.750000
vt 0.565861 0.750000
vt 0.565861 0.500000
vt 0.500000 0.500000
vt 0.625000 0.750000
vt 0.625000 0.750000
vt 0.375000 1.000000
vt 0.375000 1.000000
vt 0.125000 0.750000
vt 0.125000 0.750000
vt 0.375000 0.500000
vt 0.375000 0.500000
vt 0.434139 0.500000
vt 0.500000 0.500000
vt 0.421875 0.140625
vt 0.421875 0.390625
vt 0.421875 0.640625
vt 0.332392 0.750000
vt 0.416367 0.358273
vt 0.625000 0.000000
vt 0.416367 0.108273
vt 0.416367 0.109167
vt 0.345590 0.750000
vt 0.416367 0.608273
vn 0.0000 1.0000 0.0000
vn -1.0000 -0.0000 0.0000
vn 0.0000 -1.0000 0.0000
vn 1.0000 0.0000 0.0000
vn 0.0000 0.0000 -1.0000
vn 0.0000 0.0000 1.0000
usemtl Material
s off
f 15/1/1 7/2/1 23/3/1 13/4/1
f 16/5/1 21/6/1 1/7/1 14/8/1
f 24/9/2 23/10/2 58/11/2 25/12/2 26/13/2
f 27/14/2 9/15/2 24/9/2 26/13/2
f 9/16/3 3/17/3 22/18/3 24/19/3
f 3/17/4 1/7/4 31/20/4 32/21/4
f 29/22/4 22/18/4 3/17/4 32/21/4
f 9/15/5 7/23/5 34/24/5 33/25/5
f 3/17/5 9/15/5 33/25/5 36/26/5
f 17/27/3 19/28/3 5/29/3 11/30/3 8/31/3 20/32/3
f 18/33/3 20/32/3 8/31/3 2/34/3 5/29/3 19/28/3
f 37/35/5 60/36/5 12/37/5 11/30/5 38/38/5
f 40/39/5 61/40/5 62/41/5 59/42/5 60/36/5 37/35/5
f 41/43/4 12/44/4 10/45/4 44/46/4
f 44/46/4 10/45/4 8/47/4 43/48/4
f 10/49/1 12/37/1 59/42/1 62/41/1 6/50/1 4/51/1
f 45/52/2 6/50/2 5/29/2 46/53/2
f 48/54/2 4/51/2 6/50/2 45/52/2
f 49/55/6 10/45/6 4/51/6 52/56/6
f 52/56/6 4/51/6 2/34/6 51/57/6
f 13/58/5 16/59/5 19/60/5 17/61/5
f 20/62/4 15/63/4 13/64/4 17/65/4
f 16/59/2 14/66/2 18/67/2 19/60/2
f 18/67/6 14/66/6 15/63/6 20/62/6
f 14/8/1 1/7/1 7/2/1 15/1/1
f 13/4/1 23/3/1 21/6/1 16/5/1
f 53/68/6 24/19/6 22/18/6 56/69/6
f 56/69/6 22/18/6 21/6/6 55/70/6
f 34/71/3 35/72/3 51/73/3 50/74/3
f 52/75/1 36/76/1 33/77/1 49/78/1
f 49/79/4 33/80/4 34/81/4 50/82/4
f 51/83/2 35/84/2 36/85/2 52/86/2
f 28/87/3 43/88/3 57/89/3 58/90/3
f 27/91/1 26/92/1 41/93/1 44/94/1
f 41/95/5 26/96/5 25/97/5 42/98/5
f 28/99/6 27/100/6 44/101/6 43/102/6
f 47/103/3 31/104/3 30/105/3 46/106/3
f 29/107/1 32/108/1 48/109/1 45/110/1
f 48/111/6 32/112/6 31/113/6 47/114/6
f 46/115/5 30/116/5 29/117/5 45/118/5
f 38/119/3 39/120/3 55/121/3 54/122/3
f 56/123/1 40/124/1 37/125/1 53/126/1
f 55/127/2 39/128/2 40/129/2 56/130/2
f 53/131/4 37/132/4 38/133/4 54/134/4
f 58/90/3 57/89/3 42/135/3 25/136/3
f 58/11/2 23/10/2 7/23/2 28/137/2
f 28/137/2 7/23/2 9/15/2 27/14/2
f 34/24/5 7/23/5 1/7/5 35/138/5
f 35/138/5 1/7/5 3/17/5 36/26/5
f 31/20/4 1/7/4 21/6/4 30/139/4
f 30/139/4 21/6/4 22/18/4 29/22/4
f 55/70/6 21/6/6 23/3/6 54/140/6
f 54/140/6 23/3/6 24/19/6 53/68/6
f 60/36/5 59/42/5 12/37/5
f 51/57/6 2/34/6 8/47/6 50/141/6
f 50/141/6 8/47/6 10/45/6 49/55/6
f 62/41/5 61/40/5 6/50/5
f 43/48/4 8/47/4 11/142/4 42/143/4 57/144/4
f 42/143/4 11/142/4 12/44/4 41/43/4
f 38/38/5 11/30/5 5/29/5 39/145/5
f 39/145/5 5/29/5 6/50/5 61/40/5 40/39/5
f 46/53/2 5/29/2 2/34/2 47/146/2
f 47/146/2 2/34/2 4/51/2 48/54/2
