# Blender v3.3.1 OBJ File: 'cube_entrance.blend'
# www.blender.org
mtllib cube_entrance.mtl
o Cube
v 8.000000 16.000000 -8.000000
v 7.472868 15.474492 -7.477641
v -1.000000 1.000000 -8.000000
v 7.472868 0.526291 -7.477641
v 8.000000 0.000000 -8.000000
v -1.000000 3.000000 -8.000000
v 7.472868 15.474492 7.477641
v 7.472868 0.526291 7.477641
v 8.000000 16.000000 8.000000
v 1.000000 1.000000 -8.000000
v 1.000000 3.000000 -8.000000
v -7.472868 15.474492 -7.477641
v -7.472868 0.526291 -7.477641
v 8.000000 0.000000 8.000000
v -7.472868 15.474492 7.477641
v -7.472868 0.526291 7.477641
v -8.000000 16.000000 -8.000000
v -8.000000 0.000000 -8.000000
v -8.000000 16.000000 8.000000
v -8.000000 0.000000 8.000000
v -1.000000 1.000000 -7.477641
v -1.000000 3.000000 -7.477641
v 1.000000 3.000000 -7.477641
v 1.000000 1.000000 -7.477641
vt 0.625000 0.500000
vt 0.875000 0.500000
vt 0.875000 0.750000
vt 0.625000 0.750000
vt 0.375000 0.750000
vt 0.625000 1.000000
vt 0.375000 1.000000
vt 0.375000 0.000000
vt 0.625000 0.000000
vt 0.625000 0.250000
vt 0.375000 0.250000
vt 0.125000 0.500000
vt 0.375000 0.500000
vt 0.125000 0.750000
vt 0.390625 0.359375
vt 0.421875 0.359375
vt 0.390625 0.390625
vt 0.421875 0.390625
vt 0.625000 0.500000
vt 0.625000 0.750000
vt 0.875000 0.750000
vt 0.875000 0.500000
vt 0.375000 0.750000
vt 0.375000 1.000000
vt 0.625000 1.000000
vt 0.375000 0.000000
vt 0.375000 0.250000
vt 0.625000 0.250000
vt 0.625000 0.000000
vt 0.125000 0.500000
vt 0.125000 0.750000
vt 0.375000 0.500000
vt 0.382923 0.358273
vt 0.382923 0.391727
vt 0.416371 0.391727
vt 0.416371 0.358273
vt 0.375000 0.250000
vt 0.625000 0.250000
vt 0.625000 0.184705
vt 0.375000 0.184705
vt 0.625000 0.500000
vt 0.375000 0.500000
vt 0.375000 0.565295
vt 0.625000 0.565295
vt 0.125000 0.500000
vt 0.125000 0.565295
vt 0.875000 0.565295
vt 0.875000 0.500000
vn 0.0000 1.0000 0.0000
vn 0.0000 0.0000 1.0000
vn -1.0000 0.0000 0.0000
vn 0.0000 -1.0000 0.0000
vn 1.0000 0.0000 0.0000
vn 0.0000 0.0000 -1.0000
usemtl Material
s off
f 1/1/1 17/2/1 19/3/1 9/4/1
f 14/5/2 9/4/2 19/6/2 20/7/2
f 20/8/3 19/9/3 17/10/3 18/11/3
f 18/12/4 5/13/4 14/5/4 20/14/4
f 5/13/5 1/1/5 9/4/5 14/5/5
f 3/15/6 18/11/6 17/10/6 6/16/6
f 5/13/6 18/11/6 3/15/6 10/17/6
f 6/16/6 17/10/6 1/1/6 11/18/6
f 11/18/6 1/1/6 5/13/6 10/17/6
usemtl Material.002
f 2/19/4 7/20/4 15/21/4 12/22/4
f 8/23/6 16/24/6 15/25/6 7/20/6
f 16/26/5 13/27/5 12/28/5 15/29/5
f 13/30/1 16/31/1 8/23/1 4/32/1
f 4/32/3 8/23/3 7/20/3 2/19/3
f 21/33/2 13/27/2 4/32/2 24/34/2
f 24/34/2 4/32/2 2/19/2 23/35/2
f 23/35/2 2/19/2 12/28/2 22/36/2
f 22/36/2 12/28/2 13/27/2 21/33/2
usemtl (null)
f 3/37/5 6/38/5 22/39/5 21/40/5
f 11/41/3 10/42/3 24/43/3 23/44/3
f 24/43/1 10/42/1 3/45/1 21/46/1
f 22/47/4 6/48/4 11/41/4 23/44/4
