# Blender v3.3.1 OBJ File: 'little_house.blend'
# www.blender.org
mtllib little_house.mtl
o Cube
v 0.510000 0.510000 -0.510000
v 0.510000 -0.510000 -0.510000
v 0.510000 0.510000 0.510000
v 0.510000 -0.510000 0.510000
v -0.510000 0.510000 -0.510000
v -0.510000 -0.510000 -0.510000
v -0.510000 0.510000 0.510000
v -0.510000 -0.510000 0.510000
v -0.510000 -0.510000 0.000000
v 0.510000 0.910000 0.000000
v -0.510000 0.910000 0.000000
v 0.510000 -0.510000 0.000000
v 0.510000 0.656436 0.624852
v -0.510000 0.656436 0.624852
v 0.510000 1.096104 0.000000
v -0.510000 1.096104 0.000000
v -0.510000 0.656436 -0.624852
v 0.510000 0.656436 -0.624852
v 0.510000 0.392347 0.660008
v -0.510000 0.392347 0.660008
v -0.510000 0.392347 -0.660008
v 0.510000 0.392347 -0.660008
v -0.510000 0.538783 0.774860
v 0.510000 0.538783 0.774860
v -0.510000 0.538783 -0.774860
v 0.510000 0.538783 -0.774860
v 0.628017 0.910000 0.000000
v 0.628017 0.510000 0.510000
v -0.628017 0.910000 0.000000
v -0.628017 0.510000 -0.510000
v 0.628017 0.510000 -0.510000
v -0.628017 0.510000 0.510000
v -0.628017 0.656436 0.624852
v 0.628017 1.096104 0.000000
v 0.628017 0.656436 0.624852
v -0.628017 1.096104 0.000000
v -0.628017 0.656436 -0.624852
v 0.628017 0.656436 -0.624852
v -0.628017 0.392347 0.660008
v -0.628017 0.538783 0.774860
v -0.628017 0.392347 -0.660008
v -0.628017 0.538783 -0.774860
v 0.628017 0.538783 -0.774860
v 0.628017 0.392347 -0.660008
v 0.628017 0.392347 0.660008
v 0.628017 0.538783 0.774860
vt 0.625000 0.500000
vt 0.625000 0.250000
vt 0.625000 0.250000
vt 0.625000 0.500000
vt 0.375000 0.750000
vt 0.625000 0.750000
vt 0.625000 1.000000
vt 0.375000 1.000000
vt 0.375000 0.125000
vt 0.625000 0.125000
vt 0.375000 0.250000
vt 0.125000 0.625000
vt 0.375000 0.625000
vt 0.125000 0.750000
vt 0.625000 0.625000
vt 0.375000 0.500000
vt 0.125000 0.500000
vt 0.375000 0.000000
vt 0.625000 0.000000
vt 0.625000 0.125000
vt 0.625000 0.250000
vt 0.625000 0.625000
vt 0.875000 0.625000
vt 0.875000 0.750000
vt 0.625000 0.750000
vt 0.625000 0.500000
vt 0.875000 0.500000
vt 0.625000 0.500000
vt 0.875000 0.500000
vt 0.625000 1.000000
vt 0.625000 1.000000
vt 0.625000 1.000000
vt 0.625000 0.500000
vt 0.625000 0.500000
vt 0.625000 0.750000
vt 0.625000 0.750000
vt 0.625000 0.750000
vt 0.625000 0.250000
vt 0.625000 0.750000
vt 0.625000 1.000000
vt 0.625000 0.250000
vt 0.625000 0.250000
vt 0.875000 0.500000
vt 0.875000 0.625000
vt 0.625000 0.625000
vt 0.875000 0.750000
vt 0.625000 0.750000
vt 0.625000 0.750000
vt 0.625000 0.000000
vt 0.625000 0.000000
vt 0.625000 0.125000
vt 0.625000 0.500000
vt 0.625000 0.500000
vt 0.625000 0.625000
vt 0.625000 0.250000
vt 0.625000 0.000000
vt 0.625000 0.000000
vt 0.875000 0.750000
vt 0.875000 0.750000
vt 0.875000 0.500000
vt 0.625000 1.000000
vn 0.0000 -0.7869 0.6171
vn 0.0000 0.0000 1.0000
vn -1.0000 0.0000 0.0000
vn 0.0000 -1.0000 0.0000
vn 1.0000 0.0000 0.0000
vn 0.0000 0.0000 -1.0000
vn 0.0000 0.8178 0.5755
vn 0.0000 0.8178 -0.5755
vn 0.0000 0.7869 -0.6171
vn 0.0000 -0.7869 -0.6171
vn 0.0000 -0.6171 -0.7869
vn 0.0000 -0.6171 0.7869
vn 0.0000 0.7869 0.6171
usemtl Material
s off
f 1/1/1 5/2/1 21/3/1 22/4/1
f 4/5/2 3/6/2 7/7/2 8/8/2
f 9/9/3 11/10/3 5/2/3 6/11/3
f 9/12/4 12/13/4 4/5/4 8/14/4
f 12/13/5 10/15/5 3/6/5 4/5/5
f 6/11/6 5/2/6 1/1/6 2/16/6
f 2/16/5 1/1/5 10/15/5 12/13/5
f 6/17/4 2/16/4 12/13/4 9/12/4
f 8/18/3 7/19/3 11/10/3 9/9/3
f 5/2/1 11/10/1 29/20/1 30/21/1
f 15/22/7 16/23/7 14/24/7 13/25/7
f 18/26/8 17/27/8 16/23/8 15/22/8
f 17/27/9 18/26/9 26/28/9 25/29/9
f 7/7/10 20/30/10 39/31/10 32/32/10
f 22/4/11 26/28/11 43/33/11 44/34/11
f 19/35/10 3/6/10 28/36/10 45/37/10
f 22/4/11 21/3/11 25/38/11 26/28/11
f 20/30/12 19/35/12 24/39/12 23/40/12
f 25/38/11 21/3/11 41/41/11 42/42/11
f 16/23/8 17/27/8 37/43/8 36/44/8
f 3/6/10 10/15/10 27/45/10 28/36/10
f 7/7/10 3/6/10 19/35/10 20/30/10
f 13/25/13 14/24/13 23/46/13 24/39/13
f 13/25/13 24/39/13 46/47/13 35/48/13
f 29/20/3 32/49/3 33/50/3 36/51/3
f 27/45/5 31/52/5 38/53/5 34/54/5
f 30/21/3 29/20/3 36/51/3 37/55/3
f 28/36/5 27/45/5 34/54/5 35/48/5
f 28/36/5 35/48/5 46/47/5 45/37/5
f 33/50/3 32/49/3 39/56/3 40/57/3
f 30/21/3 37/55/3 42/42/3 41/41/3
f 38/53/5 31/52/5 44/34/5 43/33/5
f 18/26/8 15/22/8 34/54/8 38/53/8
f 24/39/12 19/35/12 45/37/12 46/47/12
f 23/46/13 14/24/13 33/58/13 40/59/13
f 14/24/7 16/23/7 36/44/7 33/58/7
f 26/28/9 18/26/9 38/53/9 43/33/9
f 17/27/9 25/29/9 42/60/9 37/43/9
f 20/30/12 23/40/12 40/61/12 39/31/12
f 21/3/1 5/2/1 30/21/1 41/41/1
f 10/15/1 1/1/1 31/52/1 27/45/1
f 1/1/1 22/4/1 44/34/1 31/52/1
f 15/22/7 13/25/7 35/48/7 34/54/7
f 11/10/10 7/19/10 32/49/10 29/20/10
