# Blender v3.3.1 OBJ File: 'painting.blend'
# www.blender.org
mtllib painting.mtl
o Cube_Cube.001
v -0.125000 -0.875000 0.875000
v -0.125000 0.875000 0.875000
v -0.125000 -0.875000 -0.875000
v -0.125000 0.875000 -0.875000
v 0.125000 -1.000000 1.000000
v 0.125000 1.000000 1.000000
v 0.125000 -1.000000 -1.000000
v 0.125000 1.000000 -1.000000
v 0.000000 0.135452 -0.791214
v -0.125000 -1.000000 -1.000000
v -0.125000 -1.000000 1.000000
v -0.125000 1.000000 1.000000
v -0.125000 1.000000 -1.000000
v -0.062500 -0.875000 -0.875000
v -0.062500 -0.875000 0.875000
v -0.062500 0.875000 0.875000
v -0.062500 0.875000 -0.875000
vt 1.437500 0.437500
vt 1.437500 0.968750
vt 1.218750 0.968750
vt 1.218750 0.437500
vt 0.593750 0.437500
vt 0.593750 1.000000
vt 0.656250 1.000000
vt 0.656250 0.437500
vt 0.562500 0.000000
vt 1.187500 0.000000
vt 1.218750 0.406250
vt 0.593750 0.406250
vt -0.000000 0.343750
vt 0.562500 0.343750
vt 0.562500 0.406250
vt -0.000000 0.406250
vt 0.562500 0.406250
vt 0.562500 0.343750
vt 0.593750 0.437500
vt 0.656250 0.437500
vt 0.500000 1.906250
vt 0.500000 1.343750
vt 0.468750 1.312500
vt 0.468750 1.937500
vt 1.062500 1.906250
vt 1.093750 1.937500
vt 1.062500 1.343750
vt 1.093750 1.312500
vt 0.000000 1.000000
vt 0.500000 1.000000
vt 0.500000 0.500000
vt 0.000000 0.500000
vt 2.125000 2.000000
vt 2.125000 1.437500
vt 1.906250 1.437500
vt 1.906250 2.000000
vt 1.437500 0.968750
vt 1.218750 0.968750
vt 2.125000 1.437500
vt 1.906250 1.437500
vn 0.0000 0.0000 1.0000
vn 0.0000 0.0000 -1.0000
vn 1.0000 0.0000 0.0000
vn 0.0000 -1.0000 0.0000
vn 0.0000 1.0000 0.0000
vn -1.0000 0.0000 0.0000
usemtl m_painting
s off
f 4/1/1 3/2/1 14/3/1 17/4/1
f 10/5/2 13/6/2 8/7/2 7/8/2
f 7/9/3 8/10/3 6/11/3 5/12/3
f 5/13/1 6/14/1 12/15/1 11/16/1
f 10/17/4 7/18/4 5/13/4 11/16/4
f 8/7/5 13/6/5 12/19/5 6/20/5
f 1/21/6 3/22/6 10/23/6 11/24/6
f 2/25/6 1/21/6 11/24/6 12/26/6
f 4/27/6 2/25/6 12/26/6 13/28/6
f 3/22/6 4/27/6 13/28/6 10/23/6
f 15/29/6 16/30/6 17/31/6 14/32/6
f 1/33/2 2/34/2 16/35/2 15/36/2
f 2/37/4 4/1/4 17/4/4 16/38/4
f 3/39/5 1/33/5 15/36/5 14/40/5
