# Blender 3.3.1
# www.blender.org
mtllib table.mtl
o Cylinder
v 0.000000 1.900000 -0.203790
v 0.000000 2.100000 -2.500000
v 0.094706 1.900000 -0.180447
v 1.161808 2.100000 -2.213640
v 0.167716 1.900000 -0.115766
v 2.057460 2.100000 -1.420162
v 0.202304 1.900000 -0.024564
v 2.481772 2.100000 -0.301342
v 0.190547 1.900000 0.072265
v 2.337541 2.100000 0.886512
v 0.135138 1.900000 0.152539
v 1.657807 2.100000 1.871277
v 0.048770 1.900000 0.197868
v 0.598289 2.100000 2.427355
v -0.048770 1.900000 0.197868
v -0.598289 2.100000 2.427355
v -0.135138 1.900000 0.152539
v -1.657807 2.100000 1.871277
v -0.190547 1.900000 0.072265
v -2.337541 2.100000 0.886512
v -0.202304 1.900000 -0.024564
v -2.481772 2.100000 -0.301342
v -0.167716 1.900000 -0.115766
v -2.057460 2.100000 -1.420162
v -0.094706 1.900000 -0.180447
v -1.161808 2.100000 -2.213640
v 0.000000 1.900000 -2.500000
v 1.161808 1.900000 -2.213640
v 2.057460 1.900000 -1.420162
v 2.481772 1.900000 -0.301342
v 2.337541 1.900000 0.886512
v 1.657807 1.900000 1.871277
v 0.598289 1.900000 2.427355
v -0.598289 1.900000 2.427355
v -1.657807 1.900000 1.871277
v -2.337541 1.900000 0.886512
v -2.481772 1.900000 -0.301342
v -2.057460 1.900000 -1.420162
v -1.161808 1.900000 -2.213640
v 0.000000 0.500000 -0.203790
v 0.094706 0.500000 -0.180447
v 0.167716 0.500000 -0.115766
v 0.202304 0.500000 -0.024564
v 0.190547 0.500000 0.072265
v 0.135138 0.500000 0.152539
v 0.048770 0.500000 0.197868
v -0.048770 0.500000 0.197868
v -0.135138 0.500000 0.152539
v -0.190547 0.500000 0.072265
v -0.202304 0.500000 -0.024564
v -0.167716 0.500000 -0.115766
v -0.094706 0.500000 -0.180447
v -0.135138 0.583051 0.152539
v -0.048770 0.583051 0.197868
v 0.094706 0.583051 -0.180447
v 0.000000 0.583051 -0.203790
v -0.190547 0.583051 0.072265
v 0.167716 0.583051 -0.115766
v -0.202304 0.583051 -0.024564
v 0.202304 0.583051 -0.024564
v -0.167716 0.583051 -0.115766
v 0.190547 0.583051 0.072265
v -0.094706 0.583051 -0.180447
v 0.135138 0.583051 0.152539
v 0.048770 0.583051 0.197868
v 0.000000 0.500000 -0.667615
v 0.310257 0.500000 -0.591144
v 0.549437 0.500000 -0.379248
v 0.662747 0.500000 -0.080472
v 0.624231 0.500000 0.236739
v 0.442711 0.500000 0.499717
v 0.159771 0.500000 0.648216
v -0.159771 0.500000 0.648216
v -0.442711 0.500000 0.499717
v -0.624231 0.500000 0.236740
v -0.662748 0.500000 -0.080472
v -0.549436 0.500000 -0.379249
v -0.310257 0.500000 -0.591144
v -0.442711 0.583051 0.499717
v 0.310257 0.583051 -0.591144
v -0.624231 0.583051 0.236740
v 0.549437 0.583051 -0.379248
v -0.662748 0.583051 -0.080472
v 0.662747 0.583051 -0.080472
v -0.549436 0.583051 -0.379249
v 0.624231 0.583051 0.236739
v -0.310257 0.583051 -0.591144
v 0.442711 0.583051 0.499717
v 0.159771 0.583051 0.648216
v -0.159771 0.583051 0.648216
v 0.000000 0.583051 -0.667615
vn 0.2393 -0.0000 -0.9709
vn 0.6631 -0.0000 -0.7485
vn 0.9350 -0.0000 -0.3546
vn 0.9927 -0.0000 0.1205
vn 0.8230 -0.0000 0.5681
vn 0.4647 -0.0000 0.8855
vn -0.0000 -0.0000 1.0000
vn -0.4647 -0.0000 0.8855
vn -0.8230 -0.0000 0.5681
vn -0.9927 -0.0000 0.1205
vn -0.9350 -0.0000 -0.3546
vn -0.0000 1.0000 -0.0000
vn -0.6631 -0.0000 -0.7485
vn -0.2393 -0.0000 -0.9709
vn -0.0000 -1.0000 -0.0000
vt 0.750000 0.269564
vt 1.000000 1.000000
vt 0.250000 0.490000
vt 0.000000 1.000000
vt 0.759092 0.267323
vt 0.923077 1.000000
vt 0.361534 0.462509
vt 0.766101 0.261114
vt 0.846154 1.000000
vt 0.447516 0.386336
vt 0.769421 0.252358
vt 0.769231 1.000000
vt 0.488250 0.278929
vt 0.768292 0.243063
vt 0.692308 1.000000
vt 0.474404 0.164895
vt 0.762973 0.235356
vt 0.615385 1.000000
vt 0.409149 0.070357
vt 0.754682 0.231005
vt 0.538462 1.000000
vt 0.307436 0.016974
vt 0.745318 0.231005
vt 0.461538 1.000000
vt 0.192564 0.016974
vt 0.737027 0.235356
vt 0.384615 1.000000
vt 0.090851 0.070357
vt 0.731708 0.243063
vt 0.307692 1.000000
vt 0.025596 0.164895
vt 0.730579 0.252358
vt 0.230769 1.000000
vt 0.011750 0.278929
vt 0.733899 0.261114
vt 0.052484 0.386336
vt 0.153846 1.000000
vt 0.740908 0.267323
vt 0.138466 0.462509
vt 0.076923 1.000000
vt 1.000000 0.500000
vt 0.000000 0.500000
vt 0.750000 0.490000
vt 0.923077 0.500000
vt 0.861534 0.462509
vt 0.846154 0.500000
vt 0.947516 0.386336
vt 0.769231 0.500000
vt 0.988250 0.278929
vt 0.692308 0.500000
vt 0.974404 0.164895
vt 0.615385 0.500000
vt 0.909149 0.070357
vt 0.538462 0.500000
vt 0.807436 0.016974
vt 0.461538 0.500000
vt 0.692564 0.016974
vt 0.384615 0.500000
vt 0.590851 0.070357
vt 0.307692 0.500000
vt 0.525596 0.164895
vt 0.230769 0.500000
vt 0.511750 0.278929
vt 0.153846 0.500000
vt 0.552484 0.386336
vt 0.076923 0.500000
vt 0.638466 0.462509
vt 0.750000 0.269564
vt 0.759092 0.267323
vt 0.766101 0.261114
vt 0.769421 0.252358
vt 0.768292 0.243063
vt 0.762973 0.235356
vt 0.754682 0.231005
vt 0.745318 0.231005
vt 0.737027 0.235356
vt 0.731708 0.243063
vt 0.730579 0.252358
vt 0.733899 0.261114
vt 0.740908 0.267323
vt 0.737027 0.235356
vt 0.745318 0.231005
vt 0.759092 0.267323
vt 0.750000 0.269564
vt 0.731708 0.243063
vt 0.766101 0.261114
vt 0.730579 0.252358
vt 0.769421 0.252358
vt 0.733899 0.261114
vt 0.768292 0.243063
vt 0.740908 0.267323
vt 0.762973 0.235356
vt 0.754682 0.231005
vt 0.750000 0.269564
vt 0.759092 0.267323
vt 0.766101 0.261114
vt 0.769421 0.252358
vt 0.768292 0.243063
vt 0.762973 0.235356
vt 0.754682 0.231005
vt 0.745318 0.231005
vt 0.737027 0.235356
vt 0.731708 0.243063
vt 0.730579 0.252358
vt 0.733899 0.261114
vt 0.740908 0.267323
vt 0.737027 0.235356
vt 0.759092 0.267323
vt 0.731708 0.243063
vt 0.766101 0.261114
vt 0.730579 0.252358
vt 0.769421 0.252358
vt 0.733899 0.261114
vt 0.768292 0.243063
vt 0.740908 0.267323
vt 0.762973 0.235356
vt 0.754682 0.231005
vt 0.745318 0.231005
vt 0.750000 0.269564
s 0
f 27/41/1 2/2/1 4/6/1 28/44/1
f 28/44/2 4/6/2 6/9/2 29/46/2
f 29/46/3 6/9/3 8/12/3 30/48/3
f 30/48/4 8/12/4 10/15/4 31/50/4
f 31/50/5 10/15/5 12/18/5 32/52/5
f 32/52/6 12/18/6 14/21/6 33/54/6
f 33/54/7 14/21/7 16/24/7 34/56/7
f 34/56/8 16/24/8 18/27/8 35/58/8
f 35/58/9 18/27/9 20/30/9 36/60/9
f 36/60/10 20/30/10 22/33/10 37/62/10
f 37/62/11 22/33/11 24/37/11 38/64/11
f 4/7/12 2/3/12 26/39/12 24/36/12 22/34/12 20/31/12 18/28/12 16/25/12 14/22/12 12/19/12 10/16/12 8/13/12 6/10/12
f 38/64/13 24/37/13 26/40/13 39/66/13
f 39/66/14 26/40/14 2/4/14 27/42/14
f 49/77/15 48/76/15 74/102/15 75/103/15
f 3/5/15 1/1/15 27/43/15 28/45/15
f 5/8/15 3/5/15 28/45/15 29/47/15
f 7/11/15 5/8/15 29/47/15 30/49/15
f 9/14/15 7/11/15 30/49/15 31/51/15
f 11/17/15 9/14/15 31/51/15 32/53/15
f 13/20/15 11/17/15 32/53/15 33/55/15
f 15/23/15 13/20/15 33/55/15 34/57/15
f 17/26/15 15/23/15 34/57/15 35/59/15
f 19/29/15 17/26/15 35/59/15 36/61/15
f 21/32/15 19/29/15 36/61/15 37/63/15
f 23/35/15 21/32/15 37/63/15 38/65/15
f 25/38/15 23/35/15 38/65/15 39/67/15
f 1/1/15 25/38/15 39/67/15 27/43/15
f 40/68/15 41/69/15 42/70/15 43/71/15 44/72/15 45/73/15 46/74/15 47/75/15 48/76/15 49/77/15 50/78/15 51/79/15 52/80/15
f 59/87/12 61/89/12 85/113/12 83/111/12
f 41/69/15 40/68/15 66/94/15 67/95/15
f 48/76/15 47/75/15 73/101/15 74/102/15
f 60/88/12 62/90/12 86/114/12 84/112/12
f 54/82/12 53/81/12 79/107/12 90/118/12
f 47/75/15 46/74/15 72/100/15 73/101/15
f 61/89/12 63/91/12 87/115/12 85/113/12
f 56/84/12 55/83/12 80/108/12 91/119/12
f 46/74/15 45/73/15 71/99/15 72/100/15
f 62/90/12 64/92/12 88/116/12 86/114/12
f 40/68/15 52/80/15 78/106/15 66/94/15
f 53/81/12 57/85/12 81/109/12 79/107/12
f 13/20/7 15/23/7 54/82/7 65/93/7
f 11/17/6 13/20/6 65/93/6 64/92/6
f 25/38/14 1/1/14 56/84/14 63/91/14
f 9/14/5 11/17/5 64/92/5 62/90/5
f 23/35/13 25/38/13 63/91/13 61/89/13
f 7/11/4 9/14/4 62/90/4 60/88/4
f 21/32/11 23/35/11 61/89/11 59/87/11
f 5/8/3 7/11/3 60/88/3 58/86/3
f 19/29/10 21/32/10 59/87/10 57/85/10
f 3/5/2 5/8/2 58/86/2 55/83/2
f 17/26/9 19/29/9 57/85/9 53/81/9
f 1/1/1 3/5/1 55/83/1 56/84/1
f 15/23/8 17/26/8 53/81/8 54/82/8
f 90/118/8 79/107/8 74/102/8 73/101/8
f 91/119/1 80/108/1 67/95/1 66/94/1
f 79/107/9 81/109/9 75/103/9 74/102/9
f 80/108/2 82/110/2 68/96/2 67/95/2
f 81/109/10 83/111/10 76/104/10 75/103/10
f 82/110/3 84/112/3 69/97/3 68/96/3
f 83/111/11 85/113/11 77/105/11 76/104/11
f 84/112/4 86/114/4 70/98/4 69/97/4
f 85/113/13 87/115/13 78/106/13 77/105/13
f 86/114/5 88/116/5 71/99/5 70/98/5
f 87/115/14 91/119/14 66/94/14 78/106/14
f 88/116/6 89/117/6 72/100/6 71/99/6
f 89/117/7 90/118/7 73/101/7 72/100/7
f 42/70/15 41/69/15 67/95/15 68/96/15
f 58/86/12 60/88/12 84/112/12 82/110/12
f 50/78/15 49/77/15 75/103/15 76/104/15
f 65/93/12 54/82/12 90/118/12 89/117/12
f 43/71/15 42/70/15 68/96/15 69/97/15
f 57/85/12 59/87/12 83/111/12 81/109/12
f 51/79/15 50/78/15 76/104/15 77/105/15
f 64/92/12 65/93/12 89/117/12 88/116/12
f 44/72/15 43/71/15 69/97/15 70/98/15
f 55/83/12 58/86/12 82/110/12 80/108/12
f 52/80/15 51/79/15 77/105/15 78/106/15
f 63/91/12 56/84/12 91/119/12 87/115/12
f 45/73/15 44/72/15 70/98/15 71/99/15
