# Blender v3.3.1 OBJ File: 'thingy.blend'
# www.blender.org
mtllib thingy.mtl
o Cube
v -0.800000 0.100000 -2.700000
v -0.800000 -0.100000 -2.700000
v -0.800000 0.100000 2.700000
v -0.800000 -0.100000 2.700000
v -0.800000 -0.100000 0.000000
v 0.800000 0.100000 0.000000
v -0.800000 0.100000 0.000000
v 0.800000 -0.100000 0.000000
v -0.800000 -0.100000 2.430000
v 0.800000 0.100000 2.430000
v -0.800000 0.100000 2.430000
v 0.800000 -0.100000 2.430000
v -0.800000 0.100000 2.308500
v 0.800000 -0.100000 2.308500
v -0.800000 -0.100000 2.308500
v 0.800000 0.100000 2.308500
v -0.800000 0.100000 -2.430000
v 0.800000 -0.100000 -2.430000
v -0.800000 -0.100000 -2.430000
v 0.800000 0.100000 -2.430000
v -0.800000 -0.100000 -2.308500
v 0.800000 0.100000 -2.308500
v -0.800000 0.100000 -2.308500
v 0.800000 -0.100000 -2.308500
v -0.160000 -0.100000 -2.700000
v -0.160000 0.100000 2.700000
v -0.160000 -0.100000 2.700000
v -0.160000 0.100000 -2.700000
v -0.160000 -0.100000 0.000000
v -0.160000 0.100000 0.000000
v -0.160000 -0.100000 2.430000
v -0.160000 0.100000 2.430000
v -0.160000 0.100000 2.308500
v -0.160000 -0.100000 2.308500
v -0.160000 0.100000 -2.430000
v -0.160000 -0.100000 -2.430000
v -0.160000 0.100000 -2.308500
v -0.160000 -0.100000 -2.308500
v -0.800000 0.400000 2.430000
v -0.800000 0.400000 2.308500
v -0.800000 0.400000 -2.308500
v -0.800000 0.400000 -2.430000
v -0.160000 0.100000 2.430000
v -0.800000 0.400000 2.430000
v -0.347452 0.312132 2.430000
v -0.800000 0.400000 2.308500
v -0.160000 0.100000 2.308500
v -0.347452 0.312132 2.308500
v -0.800000 0.400000 -2.430000
v -0.160000 0.100000 -2.430000
v -0.347452 0.312132 -2.430000
v -0.160000 0.100000 -2.308500
v -0.800000 0.400000 -2.308500
v -0.347452 0.312132 -2.308500
v -0.800000 -0.200478 2.308500
v -0.800000 -0.200478 2.430000
v -0.800000 -0.200478 -2.430000
v -0.800000 -0.200478 -2.308500
v -0.753035 -0.200478 2.430000
v -0.160000 -0.100000 2.430000
v -0.333696 -0.171049 2.430000
v -0.160000 -0.100000 2.308500
v -0.753035 -0.200478 2.308500
v -0.333696 -0.171049 2.308500
v -0.160000 -0.100000 -2.430000
v -0.753035 -0.200478 -2.430000
v -0.333696 -0.171049 -2.430000
v -0.753035 -0.200478 -2.308500
v -0.160000 -0.100000 -2.308500
v -0.333696 -0.171049 -2.308500
v 0.800000 0.100000 -2.433418
v 0.533418 0.100000 -2.700000
v 0.721920 0.100000 -2.621920
v 0.533418 -0.100000 -2.700000
v 0.800000 -0.100000 -2.433418
v 0.721920 -0.100000 -2.621920
v 0.533418 0.100000 2.700000
v 0.800000 0.100000 2.433418
v 0.721920 0.100000 2.621920
v 0.800000 -0.100000 2.433418
v 0.533418 -0.100000 2.700000
v 0.721920 -0.100000 2.621920
vt 0.775000 0.737500
vt 0.875000 0.737500
vt 0.875000 0.750000
vt 0.775000 0.750000
vt 0.375000 0.900000
vt 0.625000 0.900000
vt 0.625000 1.000000
vt 0.375000 1.000000
vt 0.375000 0.237500
vt 0.625000 0.237500
vt 0.625000 0.250000
vt 0.375000 0.250000
vt 0.625000 0.737500
vt 0.666653 0.750000
vt 0.637200 0.746385
vt 0.625000 0.737658
vt 0.625000 0.512342
vt 0.637200 0.503615
vt 0.666653 0.500000
vt 0.775000 0.500000
vt 0.775000 0.512500
vt 0.625000 0.512500
vt 0.375000 0.518125
vt 0.625000 0.518125
vt 0.625000 0.625000
vt 0.375000 0.625000
vt 0.225000 0.518125
vt 0.225000 0.625000
vt 0.375000 0.018125
vt 0.625000 0.018125
vt 0.625000 0.125000
vt 0.375000 0.125000
vt 0.775000 0.518125
vt 0.875000 0.518125
vt 0.875000 0.625000
vt 0.775000 0.625000
vt 0.375000 0.000000
vt 0.625000 0.000000
vt 0.625000 0.012500
vt 0.375000 0.012500
vt 0.375000 0.731875
vt 0.625000 0.731875
vt 0.375000 0.737500
vt 0.225000 0.731875
vt 0.225000 0.737500
vt 0.775000 0.518125
vt 0.784763 0.518125
vt 0.875000 0.518125
vt 0.875000 0.518125
vt 0.875000 0.731875
vt 0.775000 0.731875
vt 0.875000 0.500000
vt 0.875000 0.512500
vt 0.375000 0.791653
vt 0.625000 0.791653
vt 0.375000 0.350000
vt 0.625000 0.350000
vt 0.625000 0.458347
vt 0.375000 0.458347
vt 0.375000 0.231875
vt 0.625000 0.231875
vt 0.225000 0.512500
vt 0.375000 0.512500
vt 0.375000 0.237500
vt 0.375000 0.231875
vt 0.125000 0.500000
vt 0.225000 0.500000
vt 0.125000 0.512500
vt 0.333347 0.500000
vt 0.362800 0.503615
vt 0.375000 0.512342
vt 0.125000 0.625000
vt 0.125000 0.731875
vt 0.125000 0.518125
vt 0.125000 0.518125
vt 0.132338 0.518125
vt 0.215953 0.518125
vt 0.225000 0.518125
vt 0.125000 0.737500
vt 0.225000 0.750000
vt 0.125000 0.750000
vt 0.375000 0.737658
vt 0.362800 0.746385
vt 0.333347 0.750000
vt 0.775000 0.731875
vt 0.775000 0.737500
vt 0.775000 0.512500
vt 0.875000 0.512500
vt 0.875000 0.512500
vt 0.625000 0.231875
vt 0.625000 0.237500
vt 0.784763 0.512500
vt 0.875000 0.731875
vt 0.875000 0.731875
vt 0.784763 0.731875
vt 0.625000 0.012500
vt 0.625000 0.018125
vt 0.875000 0.737500
vt 0.875000 0.737500
vt 0.784763 0.737500
vt 0.225000 0.512500
vt 0.225000 0.737500
vt 0.225000 0.731875
vt 0.215953 0.512500
vt 0.132338 0.512500
vt 0.125000 0.512500
vt 0.375000 0.018125
vt 0.375000 0.012500
vt 0.215953 0.731875
vt 0.132338 0.731875
vt 0.125000 0.731875
vt 0.132338 0.737500
vt 0.125000 0.737500
vt 0.215953 0.737500
vt 0.375000 0.500000
vt 0.625000 0.500000
vt 0.375000 0.750000
vt 0.625000 0.750000
vn 0.0000 1.0000 0.0000
vn 0.0000 0.0000 1.0000
vn -1.0000 0.0000 0.0000
vn 1.0000 0.0000 0.0000
vn 0.0000 -1.0000 0.0000
vn 0.0000 0.0000 -1.0000
vn 0.1906 0.9817 0.0000
vn 0.7494 0.6622 0.0000
vn 0.3786 -0.9256 0.0000
vn 0.0700 -0.9975 0.0000
vn 0.9239 0.0000 -0.3827
vn 0.3827 0.0000 -0.9239
vn 0.3827 0.0000 0.9239
vn 0.9239 0.0000 0.3827
usemtl Material
s off
f 32/1/1 11/2/1 3/3/1 26/4/1
f 27/5/2 26/6/2 3/7/2 4/8/2
f 19/9/3 17/10/3 1/11/3 2/12/3
f 10/13/1 32/1/1 26/4/1 77/14/1 79/15/1 78/16/1
f 71/17/1 73/18/1 72/19/1 28/20/1 35/21/1 20/22/1
f 24/23/4 22/24/4 6/25/4 8/26/4
f 38/27/5 24/23/5 8/26/5 29/28/5
f 15/29/3 13/30/3 7/31/3 5/32/3
f 37/33/1 23/34/1 7/35/1 30/36/1
f 4/37/3 3/38/3 11/39/3 9/40/3
f 14/41/4 16/42/4 10/13/4 12/43/4
f 34/44/5 14/41/5 12/43/5 31/45/5
f 23/34/2 37/33/2 52/46/2 54/47/2 53/48/2 41/49/2
f 30/36/1 7/35/1 13/50/1 33/51/1
f 29/28/5 8/26/5 14/41/5 34/44/5
f 8/26/4 6/25/4 16/42/4 14/41/4
f 9/40/3 11/39/3 13/30/3 15/29/3
f 28/20/1 1/52/1 17/53/1 35/21/1
f 81/54/2 77/55/2 26/6/2 27/5/2
f 25/56/6 28/57/6 72/58/6 74/59/6
f 21/60/3 23/61/3 17/10/3 19/9/3
f 5/32/3 7/31/3 23/61/3 21/60/3
f 36/62/5 18/63/5 24/23/5 38/27/5
f 18/63/4 20/22/4 22/24/4 24/23/4
f 21/60/3 19/9/3 57/64/3 58/65/3
f 20/22/1 35/21/1 37/33/1 22/24/1
f 2/66/5 25/67/5 36/62/5 19/68/5
f 25/67/5 74/69/5 76/70/5 75/71/5 18/63/5 36/62/5
f 5/72/5 29/28/5 34/44/5 15/73/5
f 6/25/1 30/36/1 33/51/1 16/42/1
f 16/42/1 33/51/1 32/1/1 10/13/1
f 38/27/2 21/74/2 58/75/2 68/76/2 70/77/2 69/78/2
f 22/24/1 37/33/1 30/36/1 6/25/1
f 21/74/5 38/27/5 29/28/5 5/72/5
f 2/12/6 1/11/6 28/57/6 25/56/6
f 9/79/5 31/45/5 27/80/5 4/81/5
f 12/43/4 10/13/4 78/16/4 80/82/4
f 31/45/5 12/43/5 80/82/5 82/83/5 81/84/5 27/80/5
f 32/1/2 33/51/2 47/85/2 43/86/2
f 37/33/2 35/21/2 50/87/2 52/46/2
f 49/88/2 42/89/2 41/49/2 53/48/2
f 17/10/3 23/61/3 41/90/3 42/91/3
f 35/21/6 17/53/6 42/89/6 49/88/6 51/92/6 50/87/6
f 33/51/6 13/50/6 40/93/6 46/94/6 48/95/6 47/85/6
f 13/30/3 11/39/3 39/96/3 40/97/3
f 46/94/2 40/93/2 39/98/2 44/99/2
f 49/88/7 53/48/7 54/47/7 51/92/7
f 51/92/8 54/47/8 52/46/8 50/87/8
f 46/94/7 44/99/7 45/100/7 48/95/7
f 48/95/8 45/100/8 43/86/8 47/85/8
f 11/2/2 32/1/2 43/86/2 45/100/2 44/99/2 39/98/2
f 36/62/2 38/27/2 69/78/2 65/101/2
f 34/44/2 31/45/2 60/102/2 62/103/2
f 19/68/6 36/62/6 65/101/6 67/104/6 66/105/6 57/106/6
f 9/40/3 15/29/3 55/107/3 56/108/3
f 15/73/6 34/44/6 62/103/6 64/109/6 63/110/6 55/111/6
f 57/106/5 66/105/5 68/76/5 58/75/5
f 55/111/5 63/110/5 59/112/5 56/113/5
f 65/101/9 69/78/9 70/77/9 67/104/9
f 67/104/10 70/77/10 68/76/10 66/105/10
f 62/103/9 60/102/9 61/114/9 64/109/9
f 64/109/10 61/114/10 59/112/10 63/110/10
f 31/45/2 9/79/2 56/113/2 59/112/2 61/114/2 60/102/2
f 71/17/11 75/71/11 76/115/11 73/116/11
f 73/116/12 76/115/12 74/59/12 72/58/12
f 77/55/13 81/54/13 82/117/13 79/118/13
f 79/118/14 82/117/14 80/82/14 78/16/14
f 75/71/4 71/17/4 20/22/4 18/63/4
