# Blender v3.3.1 OBJ File: 'thingy.blend'
# www.blender.org
mtllib thingy.mtl
o Cube
v -0.800000 0.100000 -2.700000
v -0.800000 -0.100000 -2.700000
v -0.800000 0.100000 2.700000
v -0.800000 -0.100000 2.700000
v -0.800000 -0.100000 0.000000
v 0.800000 0.100000 0.000000
v -0.800000 0.100000 0.000000
v 0.800000 -0.100000 0.000000
v -0.800000 -0.100000 2.430000
v 0.800000 0.100000 2.430000
v -0.800000 0.100000 2.430000
v 0.800000 -0.100000 2.430000
v -0.800000 0.100000 2.308500
v 0.800000 -0.100000 2.308500
v -0.800000 -0.100000 2.308500
v 0.800000 0.100000 2.308500
v -0.800000 0.100000 -2.430000
v 0.800000 -0.100000 -2.430000
v -0.800000 -0.100000 -2.430000
v 0.800000 0.100000 -2.430000
v -0.800000 -0.100000 -2.308500
v 0.800000 0.100000 -2.308500
v -0.800000 0.100000 -2.308500
v 0.800000 -0.100000 -2.308500
v -0.160000 -0.100000 -2.700000
v -0.160000 0.100000 2.700000
v -0.160000 -0.100000 2.700000
v -0.160000 0.100000 -2.700000
v -0.160000 -0.100000 0.000000
v -0.160000 0.100000 0.000000
v -0.160000 -0.100000 2.430000
v -0.160000 0.100000 2.430000
v -0.160000 0.100000 2.308500
v -0.160000 -0.100000 2.308500
v -0.160000 0.100000 -2.430000
v -0.160000 -0.100000 -2.430000
v -0.160000 0.100000 -2.308500
v -0.160000 -0.100000 -2.308500
v -0.800000 0.400000 2.430000
v -0.800000 0.400000 2.308500
v -0.800000 0.400000 -2.308500
v -0.800000 0.400000 -2.430000
v -0.160000 0.100000 2.430000
v -0.800000 0.400000 2.430000
v -0.347452 0.312132 2.430000
v -0.800000 0.400000 2.308500
v -0.160000 0.100000 2.308500
v -0.347452 0.312132 2.308500
v -0.800000 0.400000 -2.430000
v -0.160000 0.100000 -2.430000
v -0.347452 0.312132 -2.430000
v -0.160000 0.100000 -2.308500
v -0.800000 0.400000 -2.308500
v -0.347452 0.312132 -2.308500
v -0.800000 -0.200478 2.308500
v -0.800000 -0.200478 2.430000
v -0.800000 -0.200478 -2.430000
v -0.800000 -0.200478 -2.308500
v -0.753035 -0.200478 2.430000
v -0.160000 -0.100000 2.430000
v -0.333696 -0.171049 2.430000
v -0.160000 -0.100000 2.308500
v -0.753035 -0.200478 2.308500
v -0.333696 -0.171049 2.308500
v -0.160000 -0.100000 -2.430000
v -0.753035 -0.200478 -2.430000
v -0.333696 -0.171049 -2.430000
v -0.753035 -0.200478 -2.308500
v -0.160000 -0.100000 -2.308500
v -0.333696 -0.171049 -2.308500
v 0.800000 0.100000 -2.433418
v 0.533418 0.100000 -2.700000
v 0.721920 0.100000 -2.621920
v 0.533418 -0.100000 -2.700000
v 0.800000 -0.100000 -2.433418
v 0.721920 -0.100000 -2.621920
v 0.533418 0.100000 2.700000
v 0.800000 0.100000 2.433418
v 0.721920 0.100000 2.621920
v 0.800000 -0.100000 2.433418
v 0.533418 -0.100000 2.700000
v 0.721920 -0.100000 2.621920
vt 0.177899 0.949830
vt 0.296373 0.949831
vt 0.296373 0.999812
vt 0.177899 0.999812
vt 0.691648 0.387746
vt 0.656086 0.387746
vt 0.656086 0.273945
vt 0.691648 0.273945
vt 0.584207 0.912375
vt 0.619770 0.912375
vt 0.619770 0.960385
vt 0.584207 0.960385
vt 0.000188 0.949830
vt 0.049537 0.999812
vt 0.014867 0.985899
vt 0.000190 0.951547
vt 0.000190 0.048453
vt 0.014867 0.014101
vt 0.049537 0.000188
vt 0.177899 0.000188
vt 0.177899 0.050170
vt 0.000188 0.050170
vt 0.620147 0.058693
vt 0.655709 0.058693
vt 0.655709 0.469171
vt 0.620147 0.469171
vt 0.411582 0.070433
vt 0.583830 0.070433
vt 0.583830 0.484637
vt 0.411582 0.484637
vt 0.584207 0.069803
vt 0.619770 0.069803
vt 0.619770 0.480287
vt 0.584207 0.480287
vt 0.177899 0.072661
vt 0.296373 0.072661
vt 0.296373 0.500000
vt 0.177899 0.500000
vt 0.584207 0.000188
vt 0.619770 0.000188
vt 0.619770 0.048198
vt 0.584207 0.048198
vt 0.620147 0.879649
vt 0.655709 0.879649
vt 0.655709 0.901253
vt 0.620147 0.901253
vt 0.411582 0.898840
vt 0.583830 0.898840
vt 0.583830 0.920641
vt 0.411582 0.920641
vt 0.205007 0.086862
vt 0.178327 0.072365
vt 0.195490 0.074239
vt 0.209399 0.075281
vt 0.209443 0.075590
vt 0.296373 0.927339
vt 0.177899 0.927339
vt 0.296373 0.000188
vt 0.296373 0.050170
vt 0.691648 0.511046
vt 0.656086 0.511046
vt 0.691648 0.159768
vt 0.656086 0.159768
vt 0.656086 0.036468
vt 0.691648 0.036468
vt 0.584207 0.890770
vt 0.619770 0.890770
vt 0.411582 0.048633
vt 0.583830 0.048633
vt 0.620147 0.037089
vt 0.655709 0.037089
vt 0.709891 0.022169
vt 0.709891 0.043774
vt 0.692025 0.043774
vt 0.692025 0.022169
vt 0.000188 0.072661
vt 0.296750 0.000188
vt 0.411582 0.000188
vt 0.296750 0.048633
vt 0.535999 0.000188
vt 0.569602 0.013673
vt 0.583829 0.046969
vt 0.296750 0.484637
vt 0.296750 0.898840
vt 0.000188 0.500000
vt 0.000188 0.927339
vt 0.393081 0.081550
vt 0.389693 0.081609
vt 0.389665 0.080026
vt 0.390410 0.065868
vt 0.392704 0.059969
vt 0.296750 0.070433
vt 0.691648 0.273569
vt 0.656086 0.273569
vt 0.296750 0.920640
vt 0.411582 0.969085
vt 0.296750 0.969085
vt 0.655709 0.901874
vt 0.620147 0.901874
vt 0.583828 0.922304
vt 0.569602 0.955601
vt 0.535999 0.969085
vt 0.187834 0.943254
vt 0.178327 0.949535
vt 0.187834 0.066085
vt 0.207432 0.072279
vt 0.215111 0.063842
vt 0.244119 0.077838
vt 0.238451 0.089586
vt 0.207108 0.051344
vt 0.196786 0.068953
vt 0.207108 0.928514
vt 0.215111 0.941012
vt 0.207432 0.949448
vt 0.196786 0.946122
vt 0.244119 0.955007
vt 0.238451 0.966756
vt 0.209443 0.952760
vt 0.209399 0.952450
vt 0.788395 0.569684
vt 0.788395 0.591288
vt 0.706422 0.591288
vt 0.706422 0.569684
vt 0.656086 0.591288
vt 0.656086 0.569684
vt 0.788395 0.547703
vt 0.788395 0.569307
vt 0.706422 0.569307
vt 0.706422 0.547703
vt 0.656086 0.569307
vt 0.656086 0.547703
vt 0.205007 0.964031
vt 0.195490 0.951409
vt 0.411205 0.048852
vt 0.392704 0.910176
vt 0.411205 0.899060
vt 0.392627 0.037865
vt 0.404943 0.047933
vt 0.392265 0.041588
vt 0.390902 0.040782
vt 0.709891 0.000188
vt 0.709891 0.021793
vt 0.692025 0.021793
vt 0.692025 0.000188
vt 0.392627 0.888072
vt 0.404943 0.898140
vt 0.392265 0.891795
vt 0.390902 0.890989
vt 0.699671 0.591665
vt 0.699671 0.600016
vt 0.678067 0.600016
vt 0.678067 0.591665
vt 0.677690 0.591665
vt 0.677690 0.600016
vt 0.656086 0.600016
vt 0.656086 0.591665
vt 0.699671 0.708133
vt 0.678067 0.708133
vt 0.678066 0.674764
vt 0.699671 0.674764
vt 0.677690 0.708133
vt 0.656086 0.708133
vt 0.656086 0.674764
vt 0.677690 0.674764
vt 0.393081 0.931757
vt 0.389692 0.931816
vt 0.389665 0.930233
vt 0.390410 0.916075
vt 0.655709 0.036468
vt 0.620146 0.036468
vt 0.620146 0.000188
vt 0.655709 0.000188
vt 0.656086 0.000188
vt 0.691648 0.000188
vt 0.691648 0.547326
vt 0.656086 0.547326
vt 0.655709 0.938153
vt 0.620147 0.938153
vn 0.0000 1.0000 -0.0000
vn 0.0000 0.0000 1.0000
vn -1.0000 0.0000 0.0000
vn 1.0000 0.0000 0.0000
vn 0.0000 -1.0000 0.0000
vn 0.1951 0.0000 0.9808
vn 0.0000 0.0000 -1.0000
vn 0.1951 0.0000 -0.9808
vn 0.9808 0.0000 0.1951
vn 0.1906 0.9817 0.0000
vn 0.4964 0.8681 0.0000
vn 0.7494 0.6622 0.0000
vn 0.0350 -0.9994 0.0000
vn 0.3786 -0.9256 0.0000
vn 0.2272 -0.9739 0.0000
vn 0.9808 0.0000 -0.1951
vn 0.7071 0.0000 -0.7071
vn 0.7071 0.0000 0.7071
usemtl Material
s 1
f 32/1/1 11/2/1 3/3/1 26/4/1
f 27/5/2 26/6/2 3/7/2 4/8/2
f 19/9/3 17/10/3 1/11/3 2/12/3
f 10/13/1 32/1/1 26/4/1 77/14/1 79/15/1 78/16/1
f 71/17/1 73/18/1 72/19/1 28/20/1 35/21/1 20/22/1
f 24/23/4 22/24/4 6/25/4 8/26/4
f 38/27/5 24/28/5 8/29/5 29/30/5
f 15/31/3 13/32/3 7/33/3 5/34/3
f 37/35/1 23/36/1 7/37/1 30/38/1
f 4/39/3 3/40/3 11/41/3 9/42/3
f 14/43/4 16/44/4 10/45/4 12/46/4
f 34/47/5 14/48/5 12/49/5 31/50/5
f 23/51/2 37/35/2 52/52/2 54/53/2 53/54/2 41/55/2
f 30/38/1 7/37/1 13/56/1 33/57/1
f 29/30/5 8/29/5 14/48/5 34/47/5
f 8/26/4 6/25/4 16/44/4 14/43/4
f 9/42/3 11/41/3 13/32/3 15/31/3
f 28/20/1 1/58/1 17/59/1 35/21/1
f 81/60/6 77/61/6 26/6/2 27/5/2
f 25/62/7 28/63/7 72/64/8 74/65/8
f 21/66/3 23/67/3 17/10/3 19/9/3
f 5/34/3 7/33/3 23/67/3 21/66/3
f 36/68/5 18/69/5 24/28/5 38/27/5
f 18/70/4 20/71/4 22/24/4 24/23/4
f 21/72/3 19/73/3 57/74/3 58/75/3
f 20/22/1 35/21/1 37/35/1 22/76/1
f 2/77/5 25/78/5 36/68/5 19/79/5
f 25/78/5 74/80/5 76/81/5 75/82/5 18/69/5 36/68/5
f 5/83/5 29/30/5 34/47/5 15/84/5
f 6/85/1 30/38/1 33/57/1 16/86/1
f 16/86/1 33/57/1 32/1/1 10/13/1
f 38/27/2 21/87/2 58/88/2 68/89/2 70/90/2 69/91/2
f 22/76/1 37/35/1 30/38/1 6/85/1
f 21/92/5 38/27/5 29/30/5 5/83/5
f 2/93/7 1/94/7 28/63/7 25/62/7
f 9/95/5 31/50/5 27/96/5 4/97/5
f 12/46/4 10/45/4 78/98/9 80/99/9
f 31/50/5 12/49/5 80/100/5 82/101/5 81/102/5 27/96/5
f 32/1/2 33/57/2 47/103/2 43/104/2
f 37/35/2 35/21/2 50/105/2 52/52/2
f 49/106/2 42/107/2 41/55/2 53/54/2
f 17/108/3 23/109/3 41/55/3 42/107/3
f 35/21/7 17/110/7 42/107/7 49/106/7 51/111/7 50/105/7
f 33/57/7 13/112/7 40/113/7 46/114/7 48/115/7 47/103/7
f 13/116/3 11/117/3 39/118/3 40/113/3
f 46/114/2 40/113/2 39/118/2 44/119/2
f 49/120/10 53/121/10 54/122/11 51/123/11
f 51/123/11 54/122/11 52/124/12 50/125/12
f 46/126/10 44/127/10 45/128/11 48/129/11
f 48/129/11 45/128/11 43/130/12 47/131/12
f 11/132/2 32/1/2 43/104/2 45/133/2 44/119/2 39/118/2
f 36/68/2 38/27/2 69/91/2 65/134/2
f 34/47/2 31/50/2 60/135/2 62/136/2
f 19/137/7 36/68/7 65/134/7 67/138/7 66/139/7 57/140/7
f 9/141/3 15/142/3 55/143/3 56/144/3
f 15/145/7 34/47/7 62/136/7 64/146/7 63/147/7 55/148/7
f 57/149/5 66/150/13 68/151/13 58/152/5
f 55/153/5 63/154/13 59/155/13 56/156/5
f 65/157/14 69/158/14 70/159/15 67/160/15
f 67/160/15 70/159/15 68/151/13 66/150/13
f 62/161/14 60/162/14 61/163/15 64/164/15
f 64/164/15 61/163/15 59/155/13 63/154/13
f 31/50/2 9/165/2 56/166/2 59/167/2 61/168/2 60/135/2
f 71/169/16 75/170/16 76/171/17 73/172/17
f 73/173/17 76/174/17 74/65/8 72/64/8
f 77/61/6 81/60/6 82/175/18 79/176/18
f 79/177/18 82/178/18 80/99/9 78/98/9
f 75/170/16 71/169/16 20/71/4 18/70/4
